<?xml version="1.0" encoding="UTF-8" standalone="no"?>
<!-- Created with Inkscape (http://www.inkscape.org/) -->

<svg
   width="137.93721mm"
   height="28.974276mm"
   viewBox="0 0 137.93721 28.974276"
   version="1.1"
   id="svg1"
   inkscape:version="1.3.2 (091e20e, 2023-11-25, custom)"
   sodipodi:docname="name1.svg"
   xmlns:inkscape="http://www.inkscape.org/namespaces/inkscape"
   xmlns:sodipodi="http://sodipodi.sourceforge.net/DTD/sodipodi-0.dtd"
   xmlns="http://www.w3.org/2000/svg"
   xmlns:svg="http://www.w3.org/2000/svg">
  <sodipodi:namedview
     id="namedview1"
     pagecolor="#505050"
     bordercolor="#ffffff"
     borderopacity="1"
     inkscape:showpageshadow="0"
     inkscape:pageopacity="0"
     inkscape:pagecheckerboard="1"
     inkscape:deskcolor="#505050"
     inkscape:document-units="mm"
     inkscape:zoom="1.1554363"
     inkscape:cx="260.94039"
     inkscape:cy="54.092121"
     inkscape:window-width="3840"
     inkscape:window-height="1511"
     inkscape:window-x="-9"
     inkscape:window-y="-9"
     inkscape:window-maximized="1"
     inkscape:current-layer="layer1" />
  <defs
     id="defs1" />
  <g
     inkscape:label="Layer 1"
     inkscape:groupmode="layer"
     id="layer1"
     transform="translate(-35.983333,-134.14375)">
    <g
       id="g24"
       transform="matrix(0.26458333,0,0,0.26458333,33.962909,53.560596)">
      <g
         id="g2">
		<path
   class="st1"
   d="m 66.1,390.77 c 0.27,0.47 0.41,0.9 0.41,1.3 0,0.86 -0.79,1.29 -2.36,1.29 h -3.18 c -0.94,0 -1.63,-0.12 -2.06,-0.35 -0.43,-0.24 -1.04,-0.75 -1.83,-1.53 L 20.8,352.72 c -0.55,-0.63 -1.1,-1.06 -1.65,-1.29 -0.55,-0.24 -1.3,-0.36 -2.24,-0.36 h -1.06 v 39.82 c 0,1.02 -0.16,1.69 -0.47,2 -0.31,0.31 -0.98,0.47 -2,0.47 h -2.24 c -1.1,0 -1.79,-0.14 -2.06,-0.41 -0.28,-0.27 -0.41,-0.96 -0.41,-2.06 v -81.16 c 0,-1.02 0.14,-1.69 0.41,-2 0.27,-0.31 0.92,-0.47 1.94,-0.47 h 2.36 c 1.02,0 1.69,0.16 2,0.47 0.31,0.31 0.47,0.98 0.47,2 v 34.51 h 0.94 c 0.86,0 1.53,-0.12 2,-0.35 0.47,-0.24 1.06,-0.71 1.77,-1.41 l 33.1,-33.22 c 0.78,-0.79 1.41,-1.32 1.88,-1.59 0.47,-0.27 1.14,-0.41 2,-0.41 h 2.59 c 1.02,0 1.75,0.08 2.18,0.23 0.43,0.16 0.65,0.47 0.65,0.94 0,0.47 -0.2,0.98 -0.59,1.53 -0.39,0.55 -0.9,1.1 -1.53,1.65 l -35.44,35.57 39.35,41.94 c 0.62,0.63 1.07,1.18 1.35,1.65 z"
   id="path2"
   style="fill:#353535;stroke:#353535;stroke-width:2.0675;stroke-miterlimit:10" />

	</g>
      <g
         id="g3">
		<path
   class="st2"
   d="m 103.26,412.38 c -0.2,-0.2 -0.3,-0.63 -0.3,-1.28 v -27.71 c 0,-2.22 -0.3,-4 -0.91,-5.36 -0.6,-1.36 -1.54,-2.34 -2.79,-2.95 -1.26,-0.61 -2.92,-0.91 -4.98,-0.91 -2.42,0 -4.75,0.52 -6.99,1.55 -2.24,1.03 -4.04,2.25 -5.4,3.66 -0.4,0.4 -0.67,0.75 -0.79,1.02 -0.13,0.28 -0.19,0.74 -0.19,1.4 v 29.3 c 0,0.65 -0.09,1.08 -0.26,1.28 -0.18,0.2 -0.62,0.3 -1.32,0.3 h -1.28 c -0.71,0 -1.16,-0.1 -1.36,-0.3 -0.2,-0.2 -0.3,-0.63 -0.3,-1.28 v -52.48 c 0,-0.65 0.1,-1.08 0.3,-1.28 0.2,-0.2 0.6,-0.3 1.21,-0.3 h 1.43 c 0.65,0 1.07,0.09 1.25,0.27 0.18,0.17 0.26,0.59 0.26,1.24 v 17.14 h 0.15 c 2.01,-1.86 4.24,-3.27 6.68,-4.23 2.44,-0.96 4.9,-1.43 7.36,-1.43 4.03,0 7.11,1.01 9.25,3.02 2.14,2.01 3.21,5.21 3.21,9.59 v 28.47 c 0,0.71 -0.1,1.15 -0.3,1.32 -0.2,0.18 -0.65,0.26 -1.36,0.26 h -1.28 c -0.66,0 -1.09,-0.1 -1.29,-0.31 z"
   id="path3"
   style="fill:#353535;stroke:#353535;stroke-width:2.7566;stroke-miterlimit:10" />

	</g>
      <g
         id="g4">
		<path
   class="st1"
   d="m 129.84,382.47 c 3.49,3.81 8.74,5.72 15.73,5.72 5.73,0 10.96,-1.22 15.67,-3.65 0.39,-0.24 0.78,-0.49 1.18,-0.76 0.39,-0.27 0.8,-0.51 1.24,-0.71 0.43,-0.19 0.77,-0.29 1,-0.29 0.47,0 0.86,0.14 1.18,0.41 0.31,0.27 0.63,0.69 0.94,1.24 0.63,0.94 0.94,1.73 0.94,2.36 0,0.55 -0.18,1.02 -0.53,1.42 -0.35,0.4 -0.96,0.86 -1.83,1.41 -2.51,1.49 -5.54,2.71 -9.07,3.65 -3.53,0.94 -7.15,1.41 -10.84,1.41 -9.11,0 -16.02,-2.49 -20.73,-7.48 -4.71,-4.99 -7.07,-12.39 -7.07,-22.21 v -8.72 c 0,-6.21 1.02,-11.52 3.06,-15.96 2.04,-4.44 5.01,-7.79 8.89,-10.07 3.89,-2.28 8.54,-3.42 13.96,-3.42 8.4,0 14.53,2.2 18.38,6.6 3.85,4.4 5.77,11.15 5.77,20.26 v 4.36 c 0,1.1 -0.06,1.87 -0.18,2.3 -0.12,0.43 -0.37,0.73 -0.77,0.89 -0.39,0.16 -1.06,0.23 -2,0.23 H 124.6 v 3.42 c 0,7.91 1.75,13.78 5.24,17.59 z m 3.12,-46.6 c -2.83,1.81 -4.93,4.28 -6.3,7.42 -1.37,3.14 -2.06,6.75 -2.06,10.84 v 0.94 h 36.17 v -3.42 c 0,-4.55 -0.63,-8.19 -1.88,-10.9 -1.26,-2.71 -3.16,-4.65 -5.71,-5.83 -2.55,-1.18 -5.87,-1.77 -9.95,-1.77 -4.02,0.02 -7.44,0.92 -10.27,2.72 z"
   id="path4"
   style="fill:#353535;stroke:#353535;stroke-width:2.0675;stroke-miterlimit:10" />

	</g>
      <g
         id="g5">
		<path
   class="st3"
   d="m 166.52,327.93 c -0.35,-0.12 -0.58,-0.35 -0.68,-0.68 -0.1,-0.33 -0.15,-0.84 -0.15,-1.55 v -3.4 c 0,-0.71 0.05,-1.22 0.15,-1.55 0.1,-0.33 0.33,-0.55 0.68,-0.68 0.35,-0.12 0.88,-0.19 1.59,-0.19 h 14.65 c 0.7,0 1.23,0.06 1.59,0.19 0.35,0.13 0.58,0.35 0.68,0.68 0.1,0.33 0.15,0.85 0.15,1.55 v 3.4 c 0,0.71 -0.06,1.22 -0.19,1.55 -0.13,0.33 -0.35,0.55 -0.68,0.68 -0.33,0.13 -0.84,0.19 -1.55,0.19 H 168.1 c -0.7,0 -1.23,-0.06 -1.58,-0.19 z"
   id="path5"
   style="fill:#353535" />

	</g>
      <g
         id="g10">
		<path
   class="st1"
   d="m 199.37,335.76 c 2.83,-2.83 6.05,-5.02 9.66,-6.6 3.61,-1.57 7.26,-2.36 10.96,-2.36 8.64,0 14.17,3.42 16.61,10.25 3.06,-3.3 6.5,-5.83 10.31,-7.6 3.81,-1.77 7.72,-2.65 11.72,-2.65 5.89,0 10.37,1.57 13.43,4.71 3.06,3.14 4.59,8.13 4.59,14.96 v 44.41 c 0,1.1 -0.14,1.79 -0.41,2.06 -0.28,0.27 -0.96,0.41 -2.06,0.41 h -1.89 c -1.1,0 -1.79,-0.14 -2.06,-0.41 -0.28,-0.27 -0.41,-0.96 -0.41,-2.06 v -43.35 c 0,-5.1 -1,-8.75 -3,-10.95 -2,-2.2 -5.17,-3.3 -9.48,-3.3 -3.38,0 -6.66,0.8 -9.84,2.41 -3.18,1.61 -5.79,3.48 -7.83,5.59 -0.63,0.55 -1.04,1.08 -1.24,1.59 -0.2,0.51 -0.29,1.28 -0.29,2.3 v 45.71 c 0,1.02 -0.16,1.69 -0.47,2 -0.31,0.31 -1.02,0.47 -2.12,0.47 h -2 c -1.02,0 -1.69,-0.16 -2,-0.47 -0.31,-0.31 -0.47,-0.98 -0.47,-2 v -43.35 c 0,-3.45 -0.43,-6.22 -1.3,-8.3 -0.87,-2.08 -2.18,-3.59 -3.95,-4.53 -1.77,-0.94 -4.14,-1.41 -7.13,-1.41 -3.3,0 -6.56,0.78 -9.78,2.36 -3.22,1.57 -5.85,3.46 -7.89,5.65 -0.63,0.63 -1.04,1.18 -1.24,1.65 -0.2,0.47 -0.29,1.22 -0.29,2.24 v 45.71 c 0,1.02 -0.16,1.69 -0.47,2 -0.31,0.31 -1.02,0.47 -2.12,0.47 h -2 c -1.02,0 -1.69,-0.16 -2,-0.47 -0.31,-0.31 -0.47,-0.98 -0.47,-2 v -60.2 c 0,-1.02 0.14,-1.69 0.41,-2 0.27,-0.31 0.88,-0.47 1.83,-0.47 h 1.18 c 0.78,0 1.33,0.14 1.65,0.41 0.31,0.28 0.59,0.92 0.83,1.94 l 0.82,5.18 z"
   id="path6"
   style="fill:#353535;stroke:#353535;stroke-width:2.0675;stroke-miterlimit:10" />

		<path
   class="st1"
   d="m 329.48,387.41 c 0.27,0.28 0.41,0.92 0.41,1.94 v 1.41 c 0,1.1 -0.14,1.81 -0.41,2.12 -0.28,0.31 -0.92,0.47 -1.94,0.47 h -34.28 c -1.02,0 -1.67,-0.16 -1.94,-0.47 -0.28,-0.31 -0.41,-1.02 -0.41,-2.12 v -1.41 c 0,-1.02 0.16,-1.67 0.47,-1.94 0.31,-0.27 0.94,-0.41 1.89,-0.41 h 13.66 v -73.39 h -13.66 c -1.02,0 -1.67,-0.16 -1.94,-0.47 -0.28,-0.31 -0.41,-1.02 -0.41,-2.12 v -1.53 c 0,-0.94 0.14,-1.55 0.41,-1.83 0.27,-0.27 0.92,-0.41 1.94,-0.41 h 34.4 c 1.02,0 1.65,0.14 1.89,0.41 0.24,0.27 0.35,0.96 0.35,2.06 v 1.41 c 0,1.02 -0.14,1.69 -0.41,2 -0.28,0.31 -0.88,0.47 -1.83,0.47 H 314.12 V 387 h 13.43 c 1.01,0 1.66,0.14 1.93,0.41 z"
   id="path7"
   style="fill:#353535;stroke:#353535;stroke-width:2.0675;stroke-miterlimit:10" />

		<path
   class="st1"
   d="m 338.49,395.01 c -0.39,-0.24 -0.59,-0.63 -0.59,-1.18 0,-0.31 0.12,-0.75 0.35,-1.29 0.24,-0.55 0.43,-0.98 0.59,-1.3 l 38.05,-83.4 c 0.39,-0.94 0.8,-1.55 1.24,-1.83 0.43,-0.27 1.08,-0.41 1.94,-0.41 h 1.3 c 1.65,0 2.47,0.51 2.47,1.53 0,0.31 -0.28,1.18 -0.82,2.59 l -38.05,83.29 c -0.47,1.02 -0.9,1.67 -1.3,1.94 -0.39,0.27 -1.02,0.41 -1.89,0.41 h -1.3 c -0.93,0.01 -1.59,-0.11 -1.99,-0.35 z"
   id="path8"
   style="fill:#353535;stroke:#353535;stroke-width:2.0675;stroke-miterlimit:10" />

		<path
   class="st1"
   d="m 402.81,314.61 c 5.97,-6.01 14.17,-9.01 24.62,-9.01 h 0.71 c 11.07,0 19.46,3.18 25.15,9.54 5.69,6.36 8.54,16.06 8.54,29.1 v 11.9 c 0,13.35 -2.93,23.17 -8.78,29.45 -5.85,6.28 -14.2,9.42 -25.03,9.42 h -0.83 c -10.29,0 -18.42,-3.04 -24.39,-9.13 -5.97,-6.08 -8.95,-15.96 -8.95,-29.63 v -11.66 c 0.01,-13.98 2.99,-23.97 8.96,-29.98 z m 49.36,12.96 c -1.57,-4.75 -4.3,-8.46 -8.19,-11.13 -3.89,-2.67 -9.17,-4.01 -15.84,-4.01 h -0.94 c -6.05,0 -10.98,1.16 -14.78,3.48 -3.81,2.32 -6.62,5.83 -8.42,10.54 -1.81,4.71 -2.71,10.76 -2.71,18.14 v 11.43 c 0,11 2.08,19.11 6.24,24.33 4.16,5.22 10.72,7.83 19.67,7.83 h 0.94 c 6.6,0 11.84,-1.34 15.73,-4.01 3.89,-2.67 6.64,-6.38 8.25,-11.13 1.61,-4.75 2.41,-10.58 2.41,-17.49 v -10.48 c 0,-6.92 -0.79,-12.75 -2.36,-17.5 z"
   id="path9"
   style="fill:#353535;stroke:#353535;stroke-width:2.0675;stroke-miterlimit:10" />

		<path
   class="st1"
   d="m 479.8,328.69 c 0.27,-0.31 0.88,-0.47 1.83,-0.47 h 1.06 c 0.86,0 1.45,0.14 1.77,0.41 0.31,0.28 0.59,0.92 0.83,1.94 l 0.82,5.18 h 0.24 c 3.38,-2.98 6.95,-5.22 10.72,-6.71 3.77,-1.49 7.58,-2.24 11.43,-2.24 6.36,0 11.19,1.57 14.49,4.71 3.3,3.14 4.95,8.13 4.95,14.96 v 44.41 c 0,1.1 -0.16,1.79 -0.47,2.06 -0.31,0.27 -1.02,0.41 -2.12,0.41 h -2 c -1.02,0 -1.69,-0.16 -2,-0.47 -0.31,-0.31 -0.47,-0.98 -0.47,-2 v -43.23 c 0,-3.45 -0.47,-6.24 -1.41,-8.36 -0.94,-2.12 -2.4,-3.65 -4.36,-4.59 -1.96,-0.94 -4.56,-1.41 -7.77,-1.41 -3.77,0 -7.36,0.8 -10.78,2.41 -3.42,1.61 -6.23,3.48 -8.42,5.59 -0.71,0.71 -1.16,1.28 -1.35,1.71 -0.2,0.43 -0.29,1.16 -0.29,2.18 v 45.71 c 0,1.1 -0.16,1.79 -0.47,2.06 -0.31,0.27 -1.02,0.41 -2.12,0.41 h -2 c -1.02,0 -1.69,-0.16 -2,-0.47 -0.31,-0.31 -0.47,-0.98 -0.47,-2 v -60.2 c -0.06,-1.02 0.08,-1.69 0.36,-2 z"
   id="path10"
   style="fill:#353535;stroke:#353535;stroke-width:2.0675;stroke-miterlimit:10" />

	</g>
    </g>
  </g>
</svg>
