<?xml version="1.0" encoding="UTF-8" standalone="no"?>
<!-- Generator: Adobe Illustrator 27.3.1, SVG Export Plug-In . SVG Version: 6.00 Build 0)  -->

<svg
   version="1.1"
   id="Layer_1"
   x="0px"
   y="0px"
   viewBox="0 0 536.59 418.12"
   style="enable-background:new 0 0 536.59 418.12;"
   xml:space="preserve"
   xmlns="http://www.w3.org/2000/svg"
   xmlns:svg="http://www.w3.org/2000/svg"><defs
   id="defs24"><clipPath
     clipPathUnits="userSpaceOnUse"
     id="clipPath2"><rect
       style="opacity:0;fill:#000000"
       id="rect3"
       width="413.92911"
       height="299.16373"
       x="64.474937"
       y="0" /></clipPath><clipPath
     clipPathUnits="userSpaceOnUse"
     id="clipPath3"><rect
       style="opacity:0;fill:#000000"
       id="rect4"
       width="413.92911"
       height="299.16373"
       x="64.474937"
       y="0" /></clipPath><clipPath
     clipPathUnits="userSpaceOnUse"
     id="clipPath4"><rect
       style="opacity:0;fill:#000000"
       id="rect5"
       width="413.92911"
       height="299.16373"
       x="64.474937"
       y="0" /></clipPath><clipPath
     clipPathUnits="userSpaceOnUse"
     id="clipPath5"><rect
       style="opacity:0;fill:#000000"
       id="rect6"
       width="413.92911"
       height="299.16373"
       x="64.474937"
       y="0" /></clipPath><clipPath
     clipPathUnits="userSpaceOnUse"
     id="clipPath6"><rect
       style="opacity:0;fill:#000000"
       id="rect7"
       width="413.92911"
       height="299.16373"
       x="64.474937"
       y="0" /></clipPath><clipPath
     clipPathUnits="userSpaceOnUse"
     id="clipPath7"><rect
       style="opacity:0;fill:#000000"
       id="rect8"
       width="413.92911"
       height="299.16373"
       x="64.474937"
       y="0" /></clipPath><clipPath
     clipPathUnits="userSpaceOnUse"
     id="clipPath8"><rect
       style="opacity:0;fill:#000000"
       id="rect9"
       width="413.92911"
       height="299.16373"
       x="64.474937"
       y="0" /></clipPath><clipPath
     clipPathUnits="userSpaceOnUse"
     id="clipPath9"><rect
       style="opacity:0;fill:#000000"
       id="rect10"
       width="413.92911"
       height="299.16373"
       x="64.474937"
       y="0" /></clipPath><clipPath
     clipPathUnits="userSpaceOnUse"
     id="clipPath10"><rect
       style="opacity:0;fill:#000000"
       id="rect11"
       width="413.92911"
       height="299.16373"
       x="64.474937"
       y="0" /></clipPath><clipPath
     clipPathUnits="userSpaceOnUse"
     id="clipPath11"><rect
       style="opacity:0;fill:#000000"
       id="rect12"
       width="413.92911"
       height="299.16373"
       x="64.474937"
       y="0" /></clipPath></defs>
<style
   type="text/css"
   id="style1">
	.st0{fill:none;stroke:#000000;stroke-width:1.1467;stroke-miterlimit:10;}
	.st1{fill:#353535;stroke:#353535;stroke-width:2.0675;stroke-miterlimit:10;}
	.st2{fill:#353535;stroke:#353535;stroke-width:2.7566;stroke-miterlimit:10;}
	.st3{fill:#353535;}
</style>
<path
   class="st0"
   d="M-1236.64-3504.11"
   id="path1" />
<g
   id="g24">
	
	
	
	
	
	<g
   id="g12"
   clip-path="url(#clipPath11)">
		<g
   id="g11">
			<path
   class="st3"
   d="M439.86,29.11l-1.57,49.05l-8.35,4.73l1.74-55.38c1.69,0.36,3.43,0.76,5.21,1.2     C437.86,28.93,438.84,29.06,439.86,29.11z"
   id="path11" />
		</g>
	</g>
	<g
   id="g14"
   clip-path="url(#clipPath10)">
		<g
   id="g13">
			<path
   class="st3"
   d="M412.04,24.61l-1.38,66.64l-8.24-0.22l1.42-66.73C406.52,24.3,409.23,24.39,412.04,24.61z"
   id="path12" />
		</g>
	</g>
	<g
   id="g16"
   clip-path="url(#clipPath9)">
		<g
   id="g15">
			<path
   class="st3"
   d="M386.53,25.95l-1.33,69.5L377,95.22l1.29-67.18C380.92,27.15,383.68,26.48,386.53,25.95z"
   id="path14" />
		</g>
	</g>
	<g
   id="g18"
   clip-path="url(#clipPath8)">
		<g
   id="g17">
			<path
   class="st3"
   d="M359.91,37.7l-0.89,56.63l-8.19-0.22l0.71-48.93C354.34,42.46,357.06,39.97,359.91,37.7z"
   id="path16" />
		</g>
	</g>
	<g
   id="g19"
   clip-path="url(#clipPath7)">
		<path
   class="st3"
   d="M166.71,165.94c-0.15,0-0.31-0.01-0.46-0.02c-2.27-0.25-3.9-2.3-3.65-4.57c1.8-16.18,6.85-31.3,14.59-43.71    c14.58-23.39,41.28-39.84,73.24-45.12c5.69-0.94,11.49-1.56,17.1-2.16c7.7-0.82,15.66-1.67,23.19-3.36    c4.02-0.9,7.91-1.99,11.25-3.16c1.48-0.52,5.97-2.08,11.37-4.79c2.7-1.36,8.3-4.19,13.99-8.44c4.79-3.57,8.96-7.83,13.39-12.34    c3.22-3.28,6.55-6.68,10.15-9.79C375.67,6.97,412.7,1.03,443,13.69c2.11,0.88,3.1,3.3,2.22,5.41c-0.88,2.11-3.3,3.1-5.41,2.22    c-27.46-11.48-61.04-6.09-83.55,13.39c-3.34,2.89-6.55,6.17-9.66,9.33c-4.45,4.53-9.05,9.22-14.34,13.18    c-6.27,4.68-12.31,7.73-15.22,9.2c-5.88,2.96-10.76,4.66-12.37,5.22c-3.62,1.27-7.83,2.45-12.15,3.42    c-7.99,1.8-16.19,2.67-24.13,3.51c-5.49,0.58-11.17,1.19-16.63,2.09c-29.62,4.9-54.25,19.97-67.57,41.34    c-7.09,11.37-11.72,25.29-13.38,40.25C170.57,164.37,168.78,165.94,166.71,165.94z"
   id="path18" />
	</g>
	<g
   id="g20"
   clip-path="url(#clipPath6)">
		<path
   class="st3"
   d="M372.47,102.11c-24.07,0-43.69-7.04-53.29-11.26c-2.09-0.92-3.04-3.36-2.12-5.45    c0.92-2.09,3.36-3.04,5.45-2.12c14.07,6.19,51.08,18.83,90.87,2.66c16.25-6.6,31.06-17.43,42.83-31.3    c1.48-1.74,4.09-1.96,5.83-0.48c1.74,1.48,1.96,4.09,0.48,5.83c-12.63,14.89-28.55,26.51-46.03,33.61    C401.07,99.86,386.06,102.11,372.47,102.11z"
   id="path19" />
	</g>
	<g
   id="g21"
   clip-path="url(#clipPath5)">
		<path
   class="st3"
   d="M378.53,251.09c-2.26,0-4.11-1.82-4.13-4.09l-0.89-82.76c-4.17-11.65-10.97-22.31-19.7-30.88    c-7.16-7.03-15.51-12.63-24.79-16.64c-2.1-0.9-3.06-3.34-2.16-5.44c0.9-2.1,3.34-3.07,5.44-2.16    c10.23,4.41,19.41,10.58,27.31,18.33c9.79,9.61,17.38,21.6,21.94,34.69l0.22,0.64l0.9,84.12c0.02,2.28-1.81,4.15-4.09,4.18    C378.56,251.09,378.54,251.09,378.53,251.09z"
   id="path20" />
	</g>
	<g
   id="g22"
   clip-path="url(#clipPath4)">
		<path
   class="st3"
   d="M456.3,282.91c-11.99,0-21.74-9.75-21.74-21.74v-93.11c0.38-14.53-10.61-26.87-24.5-27.62    c-6.91-0.39-13.87,2.32-19.1,7.39c-5.44,5.27-8.46,12.61-8.29,20.14l0,68.99c0,2.28-1.85,4.13-4.13,4.13s-4.13-1.85-4.13-4.13    v-68.9c-0.22-9.73,3.71-19.3,10.8-26.17c6.88-6.67,16.11-10.15,25.31-9.71c18.32,1,32.81,17.14,32.32,35.99l0,93    c0,7.43,6.04,13.47,13.47,13.47c2.28,0,4.13,1.85,4.13,4.13C460.44,281.06,458.59,282.91,456.3,282.91z"
   id="path21" />
	</g>
	<g
   id="g23"
   clip-path="url(#clipPath3)">
		<path
   class="st3"
   d="M255.12,284.13c-18.47-0.01-36.77-5.12-52.93-14.8c-1.49-0.89-2.94-1.81-4.37-2.77    c-39.55-26.37-47.1-73.44-53.76-114.97l-0.25-1.54c-2.99-18.65-5.29-38.11-6.92-59.07c-0.01,0.11-0.02,0.22-0.03,0.33l-0.7,8.24    c-4.06,47.64-8.26,96.89-26.54,142c-6.1,15.05-14.03,27.71-24.24,38.71c-0.43,0.46-0.91,0.88-1.4,1.29l-0.39,0.33    c-1.72,1.5-4.33,1.34-5.84-0.38c-1.51-1.71-1.34-4.33,0.38-5.83l0.54-0.46c0.22-0.18,0.44-0.36,0.64-0.57    c9.51-10.25,16.92-22.09,22.63-36.19c17.82-43.95,21.96-92.58,25.97-139.6l0.71-8.25c1.53-17.71,2.17-35.95,2.78-53.59    c0.29-8.3,0.58-16.59,0.96-24.85c0.03-0.65,0.1-1.29,0.19-2.02l0.12-1c0.22-2.11,2-3.71,4.11-3.71h0.85c2.18,0,3.99,1.7,4.13,3.87    l0.1,1.45c0.08,1.1,0.16,2.13,0.17,3.16c0.5,52.86,3.66,95.7,9.94,134.82l0.25,1.55c6.71,41.8,13.65,85.03,50.19,109.4    c1.32,0.88,2.67,1.73,4.04,2.55c14.87,8.91,31.7,13.62,48.68,13.62c6.8,0,13.6-0.77,20.24-2.28    c23.17-5.28,42.42-19.14,54.21-39.04c11.71-19.77,14.67-43.17,8.34-65.87c-5.07-18.19-17.05-33.7-33.72-43.69    c-11.86-7.11-25.28-10.87-38.81-10.87c-5.44,0-10.86,0.61-16.13,1.81c-18.44,4.2-33.74,15.22-43.11,31.03    c-9.29,15.68-11.64,34.23-6.62,52.24c3.76,13.49,12.66,25,25.05,32.43c12.39,7.42,27.2,9.89,40.96,6.75    c13.7-3.12,25.06-11.29,32-23.01c6.87-11.59,8.61-25.3,4.89-38.61c-2.45-8.78-8.27-16.29-16.39-21.16    c-8.15-4.89-17.89-6.52-26.98-4.45c-8.95,2.04-16.37,7.37-20.89,15c-4.44,7.5-5.57,16.37-3.17,24.97    c1.14,4.08,3.88,7.59,7.72,9.89c3.94,2.36,8.67,3.13,12.99,2.15c4.23-0.96,7.71-3.44,9.8-6.98c1.25-2.11,1.92-4.41,2-6.84    c0.08-2.28,2.01-4.06,4.27-3.99c2.28,0.08,4.07,1.99,4,4.27c-0.13,3.78-1.22,7.51-3.15,10.78c-3.26,5.51-8.62,9.36-15.07,10.83    c-6.37,1.45-13.33,0.33-19.09-3.12c-5.67-3.39-9.73-8.64-11.44-14.77c-3.01-10.79-1.58-21.94,4.02-31.41    c5.69-9.61,14.99-16.3,26.18-18.85c11.16-2.53,23.11-0.55,33.07,5.42c9.95,5.95,17.09,15.2,20.11,26.03    c4.32,15.5,2.28,31.5-5.74,45.05c-8.11,13.69-21.35,23.23-37.28,26.86c-15.82,3.6-32.84,0.79-47.05-7.72    c-14.22-8.52-24.44-21.77-28.77-37.3c-5.63-20.2-2.98-41.04,7.47-58.68c10.53-17.78,27.72-30.16,48.38-34.87    c5.86-1.34,11.91-2.02,17.97-2.02c15.03,0,29.91,4.16,43.06,12.04c18.5,11.08,31.8,28.33,37.44,48.57    c6.94,24.9,3.68,50.58-9.19,72.31c-12.96,21.87-34.08,37.1-59.49,42.89C269.96,283.3,262.53,284.13,255.12,284.13z"
   id="path22" />
	</g>
<rect
   style="opacity:0;fill:#000000"
   id="rect1"
   width="415.86337"
   height="297.87424"
   x="59.316944"
   y="-4.5132456"
   clip-path="url(#clipPath2)" /></g>
</svg>
