<svg xmlns="http://www.w3.org/2000/svg" xmlns:xlink="http://www.w3.org/1999/xlink" id="Layer_1" x="0px" y="0px" viewBox="0 0 536.59 418.12" style="enable-background:new 0 0 536.59 418.12;" xml:space="preserve"><style type="text/css">	.st0{fill:none;stroke:#000000;stroke-width:1.1467;stroke-miterlimit:10;}	.st1{fill:#353535;stroke:#353535;stroke-width:2.0675;stroke-miterlimit:10;}	.st2{fill:#353535;stroke:#353535;stroke-width:2.7566;stroke-miterlimit:10;}	.st3{fill:#353535;}</style><path class="st0" d="M-1236.64-3504.11"></path><g>	<g>		<path class="st1" d="M66.1,390.77c0.27,0.47,0.41,0.9,0.41,1.3c0,0.86-0.79,1.29-2.36,1.29h-3.18c-0.94,0-1.63-0.12-2.06-0.35   c-0.43-0.24-1.04-0.75-1.83-1.53L20.8,352.72c-0.55-0.63-1.1-1.06-1.65-1.29c-0.55-0.24-1.3-0.36-2.24-0.36h-1.06v39.82   c0,1.02-0.16,1.69-0.47,2c-0.31,0.31-0.98,0.47-2,0.47h-2.24c-1.1,0-1.79-0.14-2.06-0.41c-0.28-0.27-0.41-0.96-0.41-2.06v-81.16   c0-1.02,0.14-1.69,0.41-2c0.27-0.31,0.92-0.47,1.94-0.47h2.36c1.02,0,1.69,0.16,2,0.47c0.31,0.31,0.47,0.98,0.47,2v34.51h0.94   c0.86,0,1.53-0.12,2-0.35c0.47-0.24,1.06-0.71,1.77-1.41l33.1-33.22c0.78-0.79,1.41-1.32,1.88-1.59c0.47-0.27,1.14-0.41,2-0.41   h2.59c1.02,0,1.75,0.08,2.18,0.23c0.43,0.16,0.65,0.47,0.65,0.94s-0.2,0.98-0.59,1.53c-0.39,0.55-0.9,1.1-1.53,1.65L25.4,347.18   l39.35,41.94C65.37,389.75,65.82,390.3,66.1,390.77z"></path>	</g>	<g>		<path class="st2" d="M103.26,412.38c-0.2-0.2-0.3-0.63-0.3-1.28v-27.71c0-2.22-0.3-4-0.91-5.36c-0.6-1.36-1.54-2.34-2.79-2.95   c-1.26-0.61-2.92-0.91-4.98-0.91c-2.42,0-4.75,0.52-6.99,1.55c-2.24,1.03-4.04,2.25-5.4,3.66c-0.4,0.4-0.67,0.75-0.79,1.02   c-0.13,0.28-0.19,0.74-0.19,1.4v29.3c0,0.65-0.09,1.08-0.26,1.28c-0.18,0.2-0.62,0.3-1.32,0.3h-1.28c-0.71,0-1.16-0.1-1.36-0.3   c-0.2-0.2-0.3-0.63-0.3-1.28v-52.48c0-0.65,0.1-1.08,0.3-1.28c0.2-0.2,0.6-0.3,1.21-0.3h1.43c0.65,0,1.07,0.09,1.25,0.27   c0.18,0.17,0.26,0.59,0.26,1.24v17.14h0.15c2.01-1.86,4.24-3.27,6.68-4.23c2.44-0.96,4.9-1.43,7.36-1.43   c4.03,0,7.11,1.01,9.25,3.02c2.14,2.01,3.21,5.21,3.21,9.59v28.47c0,0.71-0.1,1.15-0.3,1.32c-0.2,0.18-0.65,0.26-1.36,0.26h-1.28   C103.89,412.69,103.46,412.59,103.26,412.38z"></path>	</g>	<g>		<path class="st1" d="M129.84,382.47c3.49,3.81,8.74,5.72,15.73,5.72c5.73,0,10.96-1.22,15.67-3.65c0.39-0.24,0.78-0.49,1.18-0.76   c0.39-0.27,0.8-0.51,1.24-0.71c0.43-0.19,0.77-0.29,1-0.29c0.47,0,0.86,0.14,1.18,0.41c0.31,0.27,0.63,0.69,0.94,1.24   c0.63,0.94,0.94,1.73,0.94,2.36c0,0.55-0.18,1.02-0.53,1.42s-0.96,0.86-1.83,1.41c-2.51,1.49-5.54,2.71-9.07,3.65   s-7.15,1.41-10.84,1.41c-9.11,0-16.02-2.49-20.73-7.48c-4.71-4.99-7.07-12.39-7.07-22.21v-8.72c0-6.21,1.02-11.52,3.06-15.96   c2.04-4.44,5.01-7.79,8.89-10.07c3.89-2.28,8.54-3.42,13.96-3.42c8.4,0,14.53,2.2,18.38,6.6c3.85,4.4,5.77,11.15,5.77,20.26v4.36   c0,1.1-0.06,1.87-0.18,2.3c-0.12,0.43-0.37,0.73-0.77,0.89c-0.39,0.16-1.06,0.23-2,0.23H124.6v3.42   C124.6,372.79,126.35,378.66,129.84,382.47z M132.96,335.87c-2.83,1.81-4.93,4.28-6.3,7.42c-1.37,3.14-2.06,6.75-2.06,10.84v0.94   h36.17v-3.42c0-4.55-0.63-8.19-1.88-10.9c-1.26-2.71-3.16-4.65-5.71-5.83c-2.55-1.18-5.87-1.77-9.95-1.77   C139.21,333.17,135.79,334.07,132.96,335.87z"></path>	</g>	<g>		<path class="st3" d="M166.52,327.93c-0.35-0.12-0.58-0.35-0.68-0.68c-0.1-0.33-0.15-0.84-0.15-1.55v-3.4   c0-0.71,0.05-1.22,0.15-1.55c0.1-0.33,0.33-0.55,0.68-0.68c0.35-0.12,0.88-0.19,1.59-0.19h14.65c0.7,0,1.23,0.06,1.59,0.19   c0.35,0.13,0.58,0.35,0.68,0.68c0.1,0.33,0.15,0.85,0.15,1.55v3.4c0,0.71-0.06,1.22-0.19,1.55c-0.13,0.33-0.35,0.55-0.68,0.68   c-0.33,0.13-0.84,0.19-1.55,0.19H168.1C167.4,328.12,166.87,328.06,166.52,327.93z"></path>	</g>	<g>		<path class="st1" d="M199.37,335.76c2.83-2.83,6.05-5.02,9.66-6.6c3.61-1.57,7.26-2.36,10.96-2.36c8.64,0,14.17,3.42,16.61,10.25   c3.06-3.3,6.5-5.83,10.31-7.6c3.81-1.77,7.72-2.65,11.72-2.65c5.89,0,10.37,1.57,13.43,4.71c3.06,3.14,4.59,8.13,4.59,14.96v44.41   c0,1.1-0.14,1.79-0.41,2.06c-0.28,0.27-0.96,0.41-2.06,0.41h-1.89c-1.1,0-1.79-0.14-2.06-0.41c-0.28-0.27-0.41-0.96-0.41-2.06   v-43.35c0-5.1-1-8.75-3-10.95c-2-2.2-5.17-3.3-9.48-3.3c-3.38,0-6.66,0.8-9.84,2.41s-5.79,3.48-7.83,5.59   c-0.63,0.55-1.04,1.08-1.24,1.59c-0.2,0.51-0.29,1.28-0.29,2.3v45.71c0,1.02-0.16,1.69-0.47,2c-0.31,0.31-1.02,0.47-2.12,0.47h-2   c-1.02,0-1.69-0.16-2-0.47c-0.31-0.31-0.47-0.98-0.47-2v-43.35c0-3.45-0.43-6.22-1.3-8.3c-0.87-2.08-2.18-3.59-3.95-4.53   c-1.77-0.94-4.14-1.41-7.13-1.41c-3.3,0-6.56,0.78-9.78,2.36c-3.22,1.57-5.85,3.46-7.89,5.65c-0.63,0.63-1.04,1.18-1.24,1.65   c-0.2,0.47-0.29,1.22-0.29,2.24v45.71c0,1.02-0.16,1.69-0.47,2c-0.31,0.31-1.02,0.47-2.12,0.47h-2c-1.02,0-1.69-0.16-2-0.47   c-0.31-0.31-0.47-0.98-0.47-2v-60.2c0-1.02,0.14-1.69,0.41-2c0.27-0.31,0.88-0.47,1.83-0.47h1.18c0.78,0,1.33,0.14,1.65,0.41   c0.31,0.28,0.59,0.92,0.83,1.94l0.82,5.18H199.37z"></path>		<path class="st1" d="M329.48,387.41c0.27,0.28,0.41,0.92,0.41,1.94v1.41c0,1.1-0.14,1.81-0.41,2.12   c-0.28,0.31-0.92,0.47-1.94,0.47h-34.28c-1.02,0-1.67-0.16-1.94-0.47c-0.28-0.31-0.41-1.02-0.41-2.12v-1.41   c0-1.02,0.16-1.67,0.47-1.94c0.31-0.27,0.94-0.41,1.89-0.41h13.66v-73.39h-13.66c-1.02,0-1.67-0.16-1.94-0.47   c-0.28-0.31-0.41-1.02-0.41-2.12v-1.53c0-0.94,0.14-1.55,0.41-1.83c0.27-0.27,0.92-0.41,1.94-0.41h34.4   c1.02,0,1.65,0.14,1.89,0.41c0.24,0.27,0.35,0.96,0.35,2.06v1.41c0,1.02-0.14,1.69-0.41,2c-0.28,0.31-0.88,0.47-1.83,0.47h-13.55   V387h13.43C328.56,387,329.21,387.14,329.48,387.41z"></path>		<path class="st1" d="M338.49,395.01c-0.39-0.24-0.59-0.63-0.59-1.18c0-0.31,0.12-0.75,0.35-1.29c0.24-0.55,0.43-0.98,0.59-1.3   l38.05-83.4c0.39-0.94,0.8-1.55,1.24-1.83c0.43-0.27,1.08-0.41,1.94-0.41h1.3c1.65,0,2.47,0.51,2.47,1.53   c0,0.31-0.28,1.18-0.82,2.59l-38.05,83.29c-0.47,1.02-0.9,1.67-1.3,1.94c-0.39,0.27-1.02,0.41-1.89,0.41h-1.3   C339.55,395.37,338.89,395.25,338.49,395.01z"></path>		<path class="st1" d="M402.81,314.61c5.97-6.01,14.17-9.01,24.62-9.01h0.71c11.07,0,19.46,3.18,25.15,9.54   c5.69,6.36,8.54,16.06,8.54,29.1v11.9c0,13.35-2.93,23.17-8.78,29.45c-5.85,6.28-14.2,9.42-25.03,9.42h-0.83   c-10.29,0-18.42-3.04-24.39-9.13c-5.97-6.08-8.95-15.96-8.95-29.63v-11.66C393.86,330.61,396.84,320.62,402.81,314.61z    M452.17,327.57c-1.57-4.75-4.3-8.46-8.19-11.13c-3.89-2.67-9.17-4.01-15.84-4.01h-0.94c-6.05,0-10.98,1.16-14.78,3.48   c-3.81,2.32-6.62,5.83-8.42,10.54c-1.81,4.71-2.71,10.76-2.71,18.14v11.43c0,11,2.08,19.11,6.24,24.33   c4.16,5.22,10.72,7.83,19.67,7.83h0.94c6.6,0,11.84-1.34,15.73-4.01c3.89-2.67,6.64-6.38,8.25-11.13   c1.61-4.75,2.41-10.58,2.41-17.49v-10.48C454.53,338.15,453.74,332.32,452.17,327.57z"></path>		<path class="st1" d="M479.8,328.69c0.27-0.31,0.88-0.47,1.83-0.47h1.06c0.86,0,1.45,0.14,1.77,0.41c0.31,0.28,0.59,0.92,0.83,1.94   l0.82,5.18h0.24c3.38-2.98,6.95-5.22,10.72-6.71c3.77-1.49,7.58-2.24,11.43-2.24c6.36,0,11.19,1.57,14.49,4.71   c3.3,3.14,4.95,8.13,4.95,14.96v44.41c0,1.1-0.16,1.79-0.47,2.06c-0.31,0.27-1.02,0.41-2.12,0.41h-2c-1.02,0-1.69-0.16-2-0.47   c-0.31-0.31-0.47-0.98-0.47-2v-43.23c0-3.45-0.47-6.24-1.41-8.36c-0.94-2.12-2.4-3.65-4.36-4.59c-1.96-0.94-4.56-1.41-7.77-1.41   c-3.77,0-7.36,0.8-10.78,2.41c-3.42,1.61-6.23,3.48-8.42,5.59c-0.71,0.71-1.16,1.28-1.35,1.71c-0.2,0.43-0.29,1.16-0.29,2.18   v45.71c0,1.1-0.16,1.79-0.47,2.06c-0.31,0.27-1.02,0.41-2.12,0.41h-2c-1.02,0-1.69-0.16-2-0.47c-0.31-0.31-0.47-0.98-0.47-2v-60.2   C479.38,329.67,479.52,329,479.8,328.69z"></path>	</g>	<g>		<g>			<path class="st3" d="M439.86,29.11l-1.57,49.05l-8.35,4.73l1.74-55.38c1.69,0.36,3.43,0.76,5.21,1.2    C437.86,28.93,438.84,29.06,439.86,29.11z"></path>		</g>	</g>	<g>		<g>			<path class="st3" d="M412.04,24.61l-1.38,66.64l-8.24-0.22l1.42-66.73C406.52,24.3,409.23,24.39,412.04,24.61z"></path>		</g>	</g>	<g>		<g>			<path class="st3" d="M386.53,25.95l-1.33,69.5L377,95.22l1.29-67.18C380.92,27.15,383.68,26.48,386.53,25.95z"></path>		</g>	</g>	<g>		<g>			<path class="st3" d="M359.91,37.7l-0.89,56.63l-8.19-0.22l0.71-48.93C354.34,42.46,357.06,39.97,359.91,37.7z"></path>		</g>	</g>	<g>		<path class="st3" d="M166.71,165.94c-0.15,0-0.31-0.01-0.46-0.02c-2.27-0.25-3.9-2.3-3.65-4.57c1.8-16.18,6.85-31.3,14.59-43.71   c14.58-23.39,41.28-39.84,73.24-45.12c5.69-0.94,11.49-1.56,17.1-2.16c7.7-0.82,15.66-1.67,23.19-3.36   c4.02-0.9,7.91-1.99,11.25-3.16c1.48-0.52,5.97-2.08,11.37-4.79c2.7-1.36,8.3-4.19,13.99-8.44c4.79-3.57,8.96-7.83,13.39-12.34   c3.22-3.28,6.55-6.68,10.15-9.79C375.67,6.97,412.7,1.03,443,13.69c2.11,0.88,3.1,3.3,2.22,5.41c-0.88,2.11-3.3,3.1-5.41,2.22   c-27.46-11.48-61.04-6.09-83.55,13.39c-3.34,2.89-6.55,6.17-9.66,9.33c-4.45,4.53-9.05,9.22-14.34,13.18   c-6.27,4.68-12.31,7.73-15.22,9.2c-5.88,2.96-10.76,4.66-12.37,5.22c-3.62,1.27-7.83,2.45-12.15,3.42   c-7.99,1.8-16.19,2.67-24.13,3.51c-5.49,0.58-11.17,1.19-16.63,2.09c-29.62,4.9-54.25,19.97-67.57,41.34   c-7.09,11.37-11.72,25.29-13.38,40.25C170.57,164.37,168.78,165.94,166.71,165.94z"></path>	</g>	<g>		<path class="st3" d="M372.47,102.11c-24.07,0-43.69-7.04-53.29-11.26c-2.09-0.92-3.04-3.36-2.12-5.45   c0.92-2.09,3.36-3.04,5.45-2.12c14.07,6.19,51.08,18.83,90.87,2.66c16.25-6.6,31.06-17.43,42.83-31.3   c1.48-1.74,4.09-1.96,5.83-0.48c1.74,1.48,1.96,4.09,0.48,5.83c-12.63,14.89-28.55,26.51-46.03,33.61   C401.07,99.86,386.06,102.11,372.47,102.11z"></path>	</g>	<g>		<path class="st3" d="M378.53,251.09c-2.26,0-4.11-1.82-4.13-4.09l-0.89-82.76c-4.17-11.65-10.97-22.31-19.7-30.88   c-7.16-7.03-15.51-12.63-24.79-16.64c-2.1-0.9-3.06-3.34-2.16-5.44c0.9-2.1,3.34-3.07,5.44-2.16   c10.23,4.41,19.41,10.58,27.31,18.33c9.79,9.61,17.38,21.6,21.94,34.69l0.22,0.64l0.9,84.12c0.02,2.28-1.81,4.15-4.09,4.18   C378.56,251.09,378.54,251.09,378.53,251.09z"></path>	</g>	<g>		<path class="st3" d="M456.3,282.91c-11.99,0-21.74-9.75-21.74-21.74v-93.11c0.38-14.53-10.61-26.87-24.5-27.62   c-6.91-0.39-13.87,2.32-19.1,7.39c-5.44,5.27-8.46,12.61-8.29,20.14l0,68.99c0,2.28-1.85,4.13-4.13,4.13s-4.13-1.85-4.13-4.13   v-68.9c-0.22-9.73,3.71-19.3,10.8-26.17c6.88-6.67,16.11-10.15,25.31-9.71c18.32,1,32.81,17.14,32.32,35.99l0,93   c0,7.43,6.04,13.47,13.47,13.47c2.28,0,4.13,1.85,4.13,4.13C460.44,281.06,458.59,282.91,456.3,282.91z"></path>	</g>	<g>		<path class="st3" d="M255.12,284.13c-18.47-0.01-36.77-5.12-52.93-14.8c-1.49-0.89-2.94-1.81-4.37-2.77   c-39.55-26.37-47.1-73.44-53.76-114.97l-0.25-1.54c-2.99-18.65-5.29-38.11-6.92-59.07c-0.01,0.11-0.02,0.22-0.03,0.33l-0.7,8.24   c-4.06,47.64-8.26,96.89-26.54,142c-6.1,15.05-14.03,27.71-24.24,38.71c-0.43,0.46-0.91,0.88-1.4,1.29l-0.39,0.33   c-1.72,1.5-4.33,1.34-5.84-0.38c-1.51-1.71-1.34-4.33,0.38-5.83l0.54-0.46c0.22-0.18,0.44-0.36,0.64-0.57   c9.51-10.25,16.92-22.09,22.63-36.19c17.82-43.95,21.96-92.58,25.97-139.6l0.71-8.25c1.53-17.71,2.17-35.95,2.78-53.59   c0.29-8.3,0.58-16.59,0.96-24.85c0.03-0.65,0.1-1.29,0.19-2.02l0.12-1c0.22-2.11,2-3.71,4.11-3.71h0.85c2.18,0,3.99,1.7,4.13,3.87   l0.1,1.45c0.08,1.1,0.16,2.13,0.17,3.16c0.5,52.86,3.66,95.7,9.94,134.82l0.25,1.55c6.71,41.8,13.65,85.03,50.19,109.4   c1.32,0.88,2.67,1.73,4.04,2.55c14.87,8.91,31.7,13.62,48.68,13.62c6.8,0,13.6-0.77,20.24-2.28   c23.17-5.28,42.42-19.14,54.21-39.04c11.71-19.77,14.67-43.17,8.34-65.87c-5.07-18.19-17.05-33.7-33.72-43.69   c-11.86-7.11-25.28-10.87-38.81-10.87c-5.44,0-10.86,0.61-16.13,1.81c-18.44,4.2-33.74,15.22-43.11,31.03   c-9.29,15.68-11.64,34.23-6.62,52.24c3.76,13.49,12.66,25,25.05,32.43c12.39,7.42,27.2,9.89,40.96,6.75   c13.7-3.12,25.06-11.29,32-23.01c6.87-11.59,8.61-25.3,4.89-38.61c-2.45-8.78-8.27-16.29-16.39-21.16   c-8.15-4.89-17.89-6.52-26.98-4.45c-8.95,2.04-16.37,7.37-20.89,15c-4.44,7.5-5.57,16.37-3.17,24.97   c1.14,4.08,3.88,7.59,7.72,9.89c3.94,2.36,8.67,3.13,12.99,2.15c4.23-0.96,7.71-3.44,9.8-6.98c1.25-2.11,1.92-4.41,2-6.84   c0.08-2.28,2.01-4.06,4.27-3.99c2.28,0.08,4.07,1.99,4,4.27c-0.13,3.78-1.22,7.51-3.15,10.78c-3.26,5.51-8.62,9.36-15.07,10.83   c-6.37,1.45-13.33,0.33-19.09-3.12c-5.67-3.39-9.73-8.64-11.44-14.77c-3.01-10.79-1.58-21.94,4.02-31.41   c5.69-9.61,14.99-16.3,26.18-18.85c11.16-2.53,23.11-0.55,33.07,5.42c9.95,5.95,17.09,15.2,20.11,26.03   c4.32,15.5,2.28,31.5-5.74,45.05c-8.11,13.69-21.35,23.23-37.28,26.86c-15.82,3.6-32.84,0.79-47.05-7.72   c-14.22-8.52-24.44-21.77-28.77-37.3c-5.63-20.2-2.98-41.04,7.47-58.68c10.53-17.78,27.72-30.16,48.38-34.87   c5.86-1.34,11.91-2.02,17.97-2.02c15.03,0,29.91,4.16,43.06,12.04c18.5,11.08,31.8,28.33,37.44,48.57   c6.94,24.9,3.68,50.58-9.19,72.31c-12.96,21.87-34.08,37.1-59.49,42.89C269.96,283.3,262.53,284.13,255.12,284.13z"></path>	</g></g></svg>